<svg width="24" height="24" viewBox="0 0 24 24" fill="none" xmlns="http://www.w3.org/2000/svg">
<path d="M15.6429 14.1428C15.4724 14.1428 15.3088 14.2106 15.1883 14.3311C15.0677 14.4517 15 14.6152 15 14.7857C15 14.9562 15.0677 15.1197 15.1883 15.2403C15.3088 15.3608 15.4724 15.4286 15.6429 15.4286H18.6429C18.8134 15.4286 18.9769 15.3608 19.0974 15.2403C19.218 15.1197 19.2857 14.9562 19.2857 14.7857C19.2857 14.6152 19.218 14.4517 19.0974 14.3311C18.9769 14.2106 18.8134 14.1428 18.6429 14.1428H15.6429ZM1.71771 7.49999C1.71771 6.64751 2.05636 5.82994 2.65915 5.22715C3.26195 4.62435 4.07952 4.28571 4.932 4.28571H19.0714C19.9239 4.28571 20.7415 4.62435 21.3443 5.22715C21.9471 5.82994 22.2857 6.64751 22.2857 7.49999V16.5C22.2857 17.3525 21.9471 18.17 21.3443 18.7728C20.7415 19.3756 19.9239 19.7143 19.0714 19.7143H4.93286C4.08037 19.7143 3.26281 19.3756 2.66001 18.7728C2.05722 18.17 1.71857 17.3525 1.71857 16.5L1.71771 7.49999ZM4.932 5.57142C4.42051 5.57142 3.92997 5.77461 3.56829 6.13629C3.20661 6.49796 3.00343 6.9885 3.00343 7.49999V8.14285H21V7.49999C21 6.9885 20.7968 6.49796 20.4351 6.13629C20.0735 5.77461 19.5829 5.57142 19.0714 5.57142H4.932ZM3.00343 16.5C3.00343 17.0115 3.20661 17.502 3.56829 17.8637C3.92997 18.2254 4.42051 18.4286 4.932 18.4286H19.0714C19.5829 18.4286 20.0735 18.2254 20.4351 17.8637C20.7968 17.502 21 17.0115 21 16.5V9.42856H3.00428L3.00343 16.5Z" fill="black"/>
</svg>
