<svg width="24" height="24" viewBox="0 0 24 24" fill="none" xmlns="http://www.w3.org/2000/svg">
<path d="M12 22.5C19.25 22.5 22 21 22 15.5M3.4015 17.8915C2.5595 17.681 2 16.9125 2 16.045V12.956C2 12.088 2.5595 11.319 3.4015 11.1085C4.2145 10.905 5.2825 10.6765 6.3325 10.5665C7.0515 10.491 7.6845 10.9125 7.804 11.625C7.909 12.247 8 13.1705 8 14.5C8 15.83 7.9085 16.7535 7.804 17.375C7.684 18.0875 7.0515 18.509 6.3325 18.434C5.2825 18.324 4.2145 18.095 3.4015 17.8915Z" stroke="black" stroke-width="1.5" stroke-linecap="round" stroke-linejoin="round"/>
<path d="M20.5985 17.8915C21.4405 17.681 22 16.9125 22 16.045V12.956C22 12.088 21.4405 11.319 20.5985 11.1085C19.7855 10.905 18.7175 10.6765 17.6675 10.5665C16.9485 10.491 16.3155 10.9125 16.196 11.625C16.091 12.247 16 13.1705 16 14.5C16 15.83 16.0915 16.7535 16.196 17.375C16.316 18.0875 16.9485 18.509 17.6675 18.434C18.7175 18.324 19.7855 18.095 20.5985 17.8915Z" stroke="black" stroke-width="1.5" stroke-linecap="round" stroke-linejoin="round"/>
<path d="M22 12.9555V11.5C22 5.977 17.523 1.5 12 1.5C6.477 1.5 2 5.977 2 11.5V12.9555M18.978 10.7565C18.693 7.255 15.678 4.5 12 4.5C8.322 4.5 5.307 7.255 5.022 10.7565" stroke="black" stroke-width="1.5" stroke-linecap="round" stroke-linejoin="round"/>
</svg>
